<?xml version="1.0" encoding="UTF-8" standalone="no"?>
<!-- Created with Inkscape (http://www.inkscape.org/) -->

<svg
   version="1.1"
   id="svg1"
   width="1024"
   height="1024"
   viewBox="0 0 1024 1024"
   xmlns="http://www.w3.org/2000/svg"
   xmlns:svg="http://www.w3.org/2000/svg">
  <defs
     id="defs1" />
  <g
     id="g1">
    <path
       style="fill:#000000"
       d="m 575,800.68663 c -6.79995,-1.53427 -13.6597,-5.29009 -16.38053,-8.9686 -2.87056,-3.88093 -3.34931,-14.32133 -1.11994,-24.42335 4.24826,-19.25024 13.10979,-42.33702 37.89199,-98.7193 7.47591,-17.00855 13.46479,-31.0524 13.30863,-31.20856 -0.15616,-0.15617 -2.58913,2.73492 -5.4066,6.42462 -13.21229,17.30259 -28.79799,31.30817 -39.29355,35.30986 -14.72256,5.61333 -31.93898,-1.6867 -38.53511,-16.3395 -3.08286,-6.84834 -3.68777,-14.60095 -2.2052,-28.2618 0.74423,-6.85754 0.72388,-6.95005 -1,-4.54582 -21.65364,30.19962 -38.25593,49.41331 -45.8912,53.10948 -8.97765,4.34601 -22.55896,0.59822 -32.74609,-9.03634 -5.4857,-5.18815 -10.86943,-13.98109 -12.08603,-19.73943 l -0.67863,-3.2121 -8.08573,10.2121 c -15.49247,19.56668 -30.72068,32.75792 -41.20508,35.69337 -9.1996,2.57573 -21.13498,-1.45407 -29.71308,-10.03217 -6.31251,-6.31251 -9.04882,-11.99071 -9.62134,-19.96553 -0.88192,-12.28455 3.02911,-22.77452 20.39384,-54.69923 6.34688,-11.66861 12.04509,-22.86211 12.66269,-24.87445 1.04023,-3.38936 0.929,-3.82558 -1.51042,-5.92388 -2.59137,-2.229 -11.47538,-6.15086 -12.18792,-5.38037 -0.20059,0.2169 -6.40401,10.29437 -13.78538,22.39437 -30.27855,49.63449 -51.87271,77.86254 -84.18572,110.04818 -27.06874,26.96205 -47.21806,40.93903 -67.19891,46.61388 -11.61085,3.29764 -26.97299,3.09787 -37.92069,-0.49314 -20.04848,-6.57619 -33.66141,-21.87223 -38.14417,-42.86029 -2.04329,-9.56659 -1.99881,-28.65975 0.0951,-40.80863 3.85476,-22.36566 12.392,-49.45589 22.89,-72.63412 9.89007,-21.83599 31.054,-57.13153 46.68999,-77.86588 27.74431,-36.7908 52.37073,-60.12729 75.51557,-71.56009 12.65907,-6.25317 21.71497,-8.27579 34.45355,-7.69513 15.07409,0.68712 23.26719,5.69962 28.88018,17.66874 2.25067,4.79931 2.61977,6.92509 2.61946,15.08648 -4.1e-4,10.65198 -1.23594,15.10683 -9.70707,35 -11.33085,26.60877 -23.22549,48.10536 -28.93441,52.29173 -7.8681,5.76969 -25.80554,2.81275 -26.63447,-4.39063 -0.18713,-1.62616 1.69229,-5.14443 5.82325,-10.9011 16.63368,-23.17977 28.91212,-49.06103 32.10297,-67.66864 1.07934,-6.2942 1.00985,-7.33199 -0.72837,-10.87783 -2.74319,-5.5959 -6.47304,-6.4746 -13.14081,-3.09579 -42.3361,21.45331 -100.27455,116.07657 -120.09925,196.14226 -4.8856,19.73138 -5.68152,25.33496 -5.68152,40 0,13.56936 0.0923,14.18265 3,19.93787 3.73244,7.38759 7.38306,9.56213 16.0529,9.56213 19.38398,0 44.82405,-16.17942 76.46883,-48.63277 23.87426,-24.48428 43.86445,-51.28736 68.7066,-92.12264 C 341.921,567.5586 341.95069,567.49596 339.74336,566 c -1.21732,-0.825 -3.57006,-2.70164 -5.22833,-4.17031 -2.80581,-2.48502 -3.01302,-3.14423 -2.986,-9.5 0.0254,-5.96806 0.51408,-7.74433 3.87376,-14.07948 4.78095,-9.01518 14.56887,-19.11074 22.1014,-22.79606 9.59433,-4.69407 19.04176,-3.34777 24.8369,3.53937 5.09828,6.05895 4.55553,12.87259 -1.98325,24.89775 -1.91141,3.5152 -3.11137,6.73316 -2.66657,7.15102 0.4448,0.41787 5.53373,2.60107 11.30873,4.85157 29.51375,11.50143 31.87782,23.58029 12.05752,61.60614 C 387.04783,644.37801 377,668.23207 377,674.61377 c 0,15.94807 53.74846,-45.79049 78.61743,-90.30449 12.38363,-22.16596 24.97848,-38.80888 41.53538,-54.88512 9.81804,-9.53302 14.77287,-13.28103 23.84719,-18.03887 4.99541,-2.61919 6.41743,-2.88382 15.5,-2.88452 9.46283,-7.3e-4 10.33429,0.18053 16.2232,3.37427 3.42276,1.85628 8.56322,5.84927 11.42325,8.87332 4.44325,4.69808 5.35674,5.26707 6.27679,3.90964 5.16987,-7.62755 7.00408,-9.6329 10.19642,-11.14776 2.59538,-1.23158 4.94385,-1.56778 8.013,-1.14711 4.93742,0.67675 14.57893,5.26114 19.14481,9.10308 5.98058,5.03232 5.9831,5.02388 -12.59207,42.17738 -9.30972,18.62102 -19.51604,39.70641 -22.6807,46.85641 -10.4016,23.50061 -16.42226,45.33066 -13.63373,49.43401 3.09155,4.54926 29.50934,-22.05889 54.54101,-54.93401 18.11444,-23.79043 26.87453,-37.03635 38.02719,-57.5 27.10203,-49.72862 53.16326,-93.8809 59.13941,-100.19249 5.07754,-5.36254 8.49455,-5.61045 17.22163,-1.24948 7.02744,3.51165 11.19979,7.90451 11.19979,11.7917 0,1.48296 -2.75295,7.63593 -6.11767,13.67328 -19.14352,34.34942 -59.3299,110.05878 -61.48781,115.84031 -0.63577,1.70337 -0.31773,1.80035 3.70501,1.12974 19.84604,-3.30846 41.54119,-16.0208 59.66749,-34.96238 8.16112,-8.52819 10.28939,-11.45143 13.17828,-18.10072 1.89491,-4.36148 7.60835,-16.46652 12.69653,-26.90009 5.08818,-10.43358 9.14348,-19.07789 9.01178,-19.20959 -0.1317,-0.1317 -3.07273,0.64236 -6.53563,1.72013 C 750.16089,495.07311 745,492.72567 745,482.7994 c 0,-8.88432 0.91737,-9.56444 23.37638,-17.33068 l 14.87638,-5.1442 11.18893,-20.91226 c 6.15391,-11.50174 17.82018,-33.68255 25.92504,-49.29068 20.93495,-40.31597 22.91894,-43.08092 29.84263,-41.58952 7.63411,1.64442 15.79064,8.07634 15.79064,12.45187 0,2.63121 -2.64249,8.8475 -26.87795,63.22857 C 833.55492,436.70437 829,447.15573 829,447.43775 c 0,0.28201 1.20841,0.0533 2.68536,-0.50822 5.49403,-2.08883 41.10394,-10.82056 49.01319,-12.01828 6.53816,-0.9901 8.5024,-0.98937 9.69885,0.004 4.0825,3.38817 4.75814,17.41237 1.0154,21.07675 -1.63617,1.60191 -36.50806,10.69226 -69.07827,18.00721 l -5.16547,1.16011 -3.4977,8.17054 c -26.57831,62.08615 -54.10432,138.58031 -52.11867,144.83657 1.12655,3.54943 5.76623,1.73241 16.94731,-6.63702 20.56986,-15.39726 46.97869,-43.68722 70.97347,-76.02901 8.45019,-11.38974 10.46239,-13.39734 14.11475,-14.08253 4.76054,-0.89308 7.41493,0.34582 9.03177,4.21546 2.00927,4.80887 0.45541,9.90596 -6.05652,19.86707 -23.01129,35.19966 -69.09838,82.26902 -91.15708,93.09993 -5.11872,2.51332 -7.03993,2.89877 -14.40639,2.8903 -6.69223,-0.008 -9.54645,-0.49028 -13.42034,-2.26912 -20.73109,-9.51942 -27.24511,-30.92646 -19.0459,-62.59059 0.72712,-2.80805 0.57151,-2.74929 -7.26906,2.74474 -14.53203,10.18286 -28.23978,15.92115 -41.29154,17.28533 -6.02594,0.62984 -6.15044,0.70302 -5.62928,3.30882 6.75467,33.77334 0.29411,65.0854 -22.80558,110.53059 -18.66675,36.72404 -45.17679,72.99384 -57.55032,78.73768 -4.98491,2.31402 -12.58395,2.89389 -18.98798,1.44895 z M 608.62261,749.75 c 22.75362,-38.12647 37.02048,-69.8899 41.81284,-93.09122 1.91421,-9.26729 3.96862,-26.58804 3.24002,-27.31665 -0.30707,-0.30706 -1.29371,1.17784 -2.19253,3.29978 -1.17758,2.78005 -37.77292,93.6626 -53.19548,132.10809 -0.27579,0.6875 -0.24523,1.25 0.0679,1.25 0.31315,0 4.93341,-7.3125 10.26724,-16.25 z m -126.98335,-99 c 10.92158,-11.22422 23.93146,-27.77231 45.00914,-57.25 22.68456,-31.72496 32.3489,-47.66215 32.35081,-53.34879 9.7e-4,-2.89747 -4.96497,-7.71275 -8.72527,-8.46055 -2.35968,-0.46926 -3.64561,0.29667 -8.61082,5.12885 -19.26067,18.74461 -55.33158,77.34147 -65.56527,106.51017 C 472.78408,652.77479 472.22188,657 474.27889,657 c 0.70339,0 4.01555,-2.8125 7.36037,-6.25 z M 210,417.33813 c -4.10615,-1.5554 -4,2.39553 -4,-148.87427 0,-141.51874 0.0478,-145.1971 1.90679,-146.87951 1.77189,-1.60354 6.10524,-1.69588 61.25,-1.30524 64.21079,0.45486 65.63556,0.56602 84.84321,6.61955 30.41399,9.58535 54.19899,35.22739 65.02446,70.10134 8.09622,26.08176 11.24238,75.13366 6.9912,109 -2.56701,20.44974 -8.28028,41.59667 -14.71002,54.4473 -10.99728,21.97944 -30.61757,40.53251 -51.15945,48.37671 -10.01747,3.82531 -24.24927,6.9002 -35.14619,7.5936 -12.33771,0.78507 -113.22565,1.59264 -115,0.92052 z m 107.5,-54.84905 c 23.82481,-5.0243 35.99531,-21.20483 41.16377,-54.72679 2.45559,-15.92659 2.45717,-59.42527 0.003,-76.02457 -3.97756,-26.90051 -12.51235,-42.57994 -27.53641,-50.58768 -9.52119,-5.07474 -16.13668,-6.11866 -38.88013,-6.13526 L 272,175 v 94.5 94.5 l 19.25,-0.0174 c 13.08353,-0.0118 21.49235,-0.49025 26.25,-1.49356 z M 582,415 c -1.98153,-1.98153 -2,-3.33333 -2,-146.38922 0,-136.36824 0.0978,-144.51002 1.76103,-146.564 l 1.76104,-2.17478 60.48896,0.39143 c 57.87715,0.37452 60.91041,0.48621 70.24929,2.58665 22.15422,4.98276 36.13988,12.3505 48.37293,25.48317 16.69486,17.92261 24.60243,46.2631 21.56606,77.29208 -4.32862,44.2345 -26.13909,73.31011 -64.83282,86.42883 C 704.87315,316.96798 696.36865,318 670.36901,318 H 647 v 46.86514 c 0,45.89801 -0.0428,46.91952 -2.07258,49.5 L 642.85484,417 H 613.42742 C 585.33333,417 583.90938,416.90938 582,415 Z M 695.24666,262.13233 c 7.45701,-2.95019 15.93607,-10.69554 19.09444,-17.44218 3.44145,-7.35131 4.6589,-14.22184 4.6589,-26.29197 0,-18.72632 -4.09213,-29.72913 -13.79413,-37.08928 -7.2734,-5.51777 -11.86726,-6.30887 -36.63737,-6.30918 l -22.0685,-2.9e-4 0.27019,45.08596 0.27019,45.08596 21.22981,-0.38275 c 19.20231,-0.34619 21.77863,-0.59988 26.97647,-2.65627 z M 477.00401,413.1683 c -1.92279,-0.18244 -4.06029,-0.80004 -4.75,-1.37245 C 471.26871,410.97812 471,394.40131 471,334.43426 v -76.32085 l 2.22251,-1.55671 C 475.08134,255.25473 479.29936,255 499,255 c 19.70064,0 23.91866,0.25473 25.77749,1.5567 L 527,258.11341 v 76.32085 c 0,62.6841 -0.24014,76.52015 -1.34402,77.43629 -1.27995,1.06226 -40.1939,2.10026 -48.65197,1.29775 z m 10.42031,-180.16401 c -20.00774,-7.93899 -25.4774,-33.33065 -10.26361,-47.64649 5.36031,-5.04394 11.50303,-7.62134 19.33929,-8.11451 11.93165,-0.7509 22.42083,4.66257 28.25099,14.58033 2.44865,4.16543 2.74901,5.65973 2.74901,13.67638 0,10.40272 -1.5619,14.5619 -7.81767,20.81767 -7.9174,7.9174 -21.86829,10.80922 -32.25801,6.68662 z"
       id="path1" />
  </g>
</svg>
